<svg xmlns="http://www.w3.org/2000/svg" viewBox="0 0 3840 2160"><g transform="
          rotate(0 1920 1080) 
          translate(-0 -0)
          scale(1)
        "><rect width="3840" height="2160" fill="rgb(64, 15, 104)"></rect><g transform="translate(0, 0)"><path fill="rgb(80, 21, 107)" fill-opacity="1" d="M0,352.943L91.429,350.075C182.857,347.207,365.714,341.471,548.571,340.581C731.429,339.692,914.286,343.65,1097.143,344.095C1280,344.54,1462.857,341.472,1645.714,303.183C1828.571,264.894,2011.429,191.383,2194.286,185.175C2377.143,178.967,2560,240.06,2742.857,221.336C2925.714,202.612,3108.571,104.069,3291.429,98.48C3474.286,92.892,3657.143,180.258,3748.571,223.941L3840,267.624L3840,2160L3748.571,2160C3657.143,2160,3474.286,2160,3291.429,2160C3108.571,2160,2925.714,2160,2742.857,2160C2560,2160,2377.143,2160,2194.286,2160C2011.429,2160,1828.571,2160,1645.714,2160C1462.857,2160,1280,2160,1097.143,2160C914.286,2160,731.429,2160,548.571,2160C365.714,2160,182.857,2160,91.429,2160L0,2160Z"></path></g><g transform="translate(0, 360)"><path fill="rgb(95, 26, 110)" fill-opacity="1" d="M0,136.093L91.429,117.434C182.857,98.774,365.714,61.455,548.571,80.719C731.429,99.983,914.286,175.829,1097.143,189.505C1280,203.181,1462.857,154.687,1645.714,130.414C1828.571,106.141,2011.429,106.09,2194.286,141.274C2377.143,176.458,2560,246.877,2742.857,284.697C2925.714,322.517,3108.571,327.739,3291.429,284.675C3474.286,241.611,3657.143,150.263,3748.571,104.589L3840,58.914L3840,1800L3748.571,1800C3657.143,1800,3474.286,1800,3291.429,1800C3108.571,1800,2925.714,1800,2742.857,1800C2560,1800,2377.143,1800,2194.286,1800C2011.429,1800,1828.571,1800,1645.714,1800C1462.857,1800,1280,1800,1097.143,1800C914.286,1800,731.429,1800,548.571,1800C365.714,1800,182.857,1800,91.429,1800L0,1800Z"></path></g><g transform="translate(0, 720)"><path fill="rgb(111, 32, 113)" fill-opacity="1" d="M0,107.121L91.429,134.307C182.857,161.493,365.714,215.866,548.571,254.33C731.429,292.794,914.286,315.35,1097.143,300.514C1280,285.679,1462.857,233.452,1645.714,180.313C1828.571,127.174,2011.429,73.123,2194.286,43.365C2377.143,13.606,2560,8.141,2742.857,41.079C2925.714,74.017,3108.571,145.358,3291.429,167.782C3474.286,190.206,3657.143,163.713,3748.571,150.467L3840,137.221L3840,1440L3748.571,1440C3657.143,1440,3474.286,1440,3291.429,1440C3108.571,1440,2925.714,1440,2742.857,1440C2560,1440,2377.143,1440,2194.286,1440C2011.429,1440,1828.571,1440,1645.714,1440C1462.857,1440,1280,1440,1097.143,1440C914.286,1440,731.429,1440,548.571,1440C365.714,1440,182.857,1440,91.429,1440L0,1440Z"></path></g><g transform="translate(0, 1080)"><path fill="rgb(126, 38, 116)" fill-opacity="1" d="M0,51.483L91.429,57.966C182.857,64.448,365.714,77.412,548.571,86.608C731.429,95.804,914.286,101.232,1097.143,133.056C1280,164.88,1462.857,223.101,1645.714,262.75C1828.571,302.399,2011.429,323.476,2194.286,336.118C2377.143,348.761,2560,352.969,2742.857,328.624C2925.714,304.279,3108.571,251.381,3291.429,209.295C3474.286,167.208,3657.143,135.933,3748.571,120.296L3840,104.658L3840,1080L3748.571,1080C3657.143,1080,3474.286,1080,3291.429,1080C3108.571,1080,2925.714,1080,2742.857,1080C2560,1080,2377.143,1080,2194.286,1080C2011.429,1080,1828.571,1080,1645.714,1080C1462.857,1080,1280,1080,1097.143,1080C914.286,1080,731.429,1080,548.571,1080C365.714,1080,182.857,1080,91.429,1080L0,1080Z"></path></g><g transform="translate(0, 1440)"><path fill="rgb(142, 43, 119)" fill-opacity="1" d="M0,34.704L91.429,80.814C182.857,126.925,365.714,219.145,548.571,272.167C731.429,325.189,914.286,339.013,1097.143,346.415C1280,353.817,1462.857,354.798,1645.714,334.281C1828.571,313.765,2011.429,271.752,2194.286,245.517C2377.143,219.282,2560,208.825,2742.857,187.458C2925.714,166.092,3108.571,133.817,3291.429,159.31C3474.286,184.803,3657.143,268.065,3748.571,309.696L3840,351.327L3840,720L3748.571,720C3657.143,720,3474.286,720,3291.429,720C3108.571,720,2925.714,720,2742.857,720C2560,720,2377.143,720,2194.286,720C2011.429,720,1828.571,720,1645.714,720C1462.857,720,1280,720,1097.143,720C914.286,720,731.429,720,548.571,720C365.714,720,182.857,720,91.429,720L0,720Z"></path></g><g transform="translate(0, 1800)"><path fill="rgb(157, 49, 122)" fill-opacity="1" d="M0,309.873L91.429,312.854C182.857,315.835,365.714,321.796,548.571,314.88C731.429,307.964,914.286,288.17,1097.143,238.789C1280,189.409,1462.857,110.442,1645.714,119.898C1828.571,129.355,2011.429,227.234,2194.286,249.472C2377.143,271.71,2560,218.307,2742.857,172.896C2925.714,127.486,3108.571,90.069,3291.429,89.297C3474.286,88.526,3657.143,124.401,3748.571,142.339L3840,160.276L3840,360L3748.571,360C3657.143,360,3474.286,360,3291.429,360C3108.571,360,2925.714,360,2742.857,360C2560,360,2377.143,360,2194.286,360C2011.429,360,1828.571,360,1645.714,360C1462.857,360,1280,360,1097.143,360C914.286,360,731.429,360,548.571,360C365.714,360,182.857,360,91.429,360L0,360Z"></path></g></g></svg>